<?xml version="1.0" standalone="no"?>
<!DOCTYPE svg PUBLIC "-//W3C//DTD SVG 20010904//EN"
 "http://www.w3.org/TR/2001/REC-SVG-20010904/DTD/svg10.dtd">
<svg version="1.0" xmlns="http://www.w3.org/2000/svg"
 width="70.000000pt" height="70.000000pt" viewBox="0 0 70.000000 70.000000"
 preserveAspectRatio="xMidYMid meet">
<metadata>
Created by potrace 1.11, written by Peter Selinger 2001-2013
</metadata>
<g transform="translate(0.000000,70.000000) scale(0.100000,-0.100000)"
fill="#000000" stroke="none">
<path d="M220 642 c-67 -33 -62 -111 11 -159 22 -16 54 -39 71 -53 l29 -25
-47 -49 -47 -49 -19 23 c-11 13 -22 36 -25 52 -9 48 -23 31 -23 -28 0 -48 2
-55 14 -45 11 9 19 9 34 0 16 -10 20 -23 19 -73 0 -75 23 -128 68 -156 42 -26
115 -29 151 -5 24 16 26 16 40 -2 12 -16 13 -10 14 48 0 37 5 70 12 77 9 9 -2
12 -52 11 -36 -1 -56 -4 -45 -6 27 -7 35 -21 35 -69 0 -50 -14 -64 -62 -64
-73 0 -108 47 -113 149 -2 54 9 81 34 81 22 0 56 36 67 72 l9 28 43 -21 c32
-16 44 -29 49 -51 10 -51 23 -41 23 19 -1 49 -3 55 -13 41 -9 -11 -18 -14 -28
-7 -8 5 -31 14 -51 19 -23 7 -39 18 -43 31 -4 11 -38 41 -76 65 -72 47 -90 68
-84 100 2 10 4 22 4 26 1 10 43 22 66 19 26 -3 65 -46 65 -72 0 -11 5 -17 10
-14 6 3 10 27 10 52 0 38 -2 44 -14 34 -11 -10 -20 -10 -36 -1 -37 20 -64 20
-100 2z m120 -286 c0 -15 -30 -50 -37 -43 -6 7 19 57 29 57 4 0 8 -6 8 -14z"/>
</g>
</svg>
